<?xml version="1.0" encoding="UTF-8"?> <svg xmlns="http://www.w3.org/2000/svg" width="215" height="152" viewBox="0 0 215 152" fill="none"><g opacity="0.5"><path opacity="0.5" fill-rule="evenodd" clip-rule="evenodd" d="M75.4317 145.922C74.3043 142.97 75.7886 139.662 78.7443 138.538C81.7001 137.414 85.0152 138.898 86.1426 141.849C87.2701 144.801 85.7858 148.109 82.8301 149.233C79.8743 150.357 76.5592 148.873 75.4317 145.922Z" fill="#FFD141"></path><path opacity="0.5" fill-rule="evenodd" clip-rule="evenodd" d="M78.9874 150C78.3842 148.421 79.1783 146.651 80.7593 146.05C82.3404 145.449 84.1136 146.243 84.7168 147.822C85.3199 149.4 84.5259 151.17 82.9448 151.771C81.3638 152.373 79.5905 151.579 78.9874 150Z" fill="#FFD141"></path><path opacity="0.5" fill-rule="evenodd" clip-rule="evenodd" d="M74.2033 139.887C73.6001 138.308 74.3941 136.538 75.9752 135.937C77.5562 135.336 79.3295 136.13 79.9327 137.708C80.5358 139.287 79.7417 141.057 78.1607 141.658C76.5796 142.259 74.8064 141.466 74.2033 139.887Z" fill="#FFD141"></path><path opacity="0.5" fill-rule="evenodd" clip-rule="evenodd" d="M78.5888 139.902C77.6945 137.561 78.8719 134.937 81.2163 134.045C83.5608 133.154 86.1903 134.331 87.0846 136.672C87.9789 139.013 86.8016 141.637 84.4571 142.529C82.1126 143.42 79.4831 142.243 78.5888 139.902Z" fill="#FFD141"></path><path opacity="0.5" fill-rule="evenodd" clip-rule="evenodd" d="M74.7847 136.484C73.5615 133.282 75.1719 129.693 78.3786 128.473C81.5854 127.254 85.182 128.864 86.4052 132.066C87.6284 135.268 86.018 138.858 82.8113 140.077C79.6045 141.296 76.0079 139.687 74.7847 136.484Z" fill="#FFD141"></path></g><path fill-rule="evenodd" clip-rule="evenodd" d="M80.1667 128.675C80.3944 127.874 80.9846 127.187 81.8229 126.868C83.2327 126.332 84.814 127.04 85.3518 128.448C85.7248 129.424 85.4986 130.482 84.8545 131.218C85.143 131.459 85.3756 131.774 85.5189 132.149C85.9655 133.319 85.3775 134.629 84.2066 135.075C84.1644 135.091 84.122 135.105 84.0794 135.119C84.4848 135.496 84.8121 135.969 85.0227 136.521C85.6793 138.239 84.9814 140.144 83.4554 141.059C83.6192 141.24 83.7528 141.454 83.8451 141.696C84.2459 142.745 83.7183 143.921 82.6678 144.32C81.6173 144.72 80.4392 144.192 80.0385 143.143C79.8044 142.531 79.887 141.875 80.2057 141.355C79.2337 140.991 78.4165 140.228 78.0177 139.184C77.5432 137.942 77.776 136.603 78.5176 135.61C77.8248 135.193 77.2613 134.551 76.9511 133.739C76.2137 131.809 77.1845 129.645 79.1175 128.91C79.463 128.779 79.8159 128.702 80.1667 128.675Z" fill="url(#paint0_radial_98_12236)"></path><path fill-rule="evenodd" clip-rule="evenodd" d="M72.612 130.558L72.6036 130.557L72.6383 124.328L89.3319 124.454L89.3029 130.33C89.3135 130.443 89.313 130.556 89.3012 130.67L89.3009 130.718L89.2955 130.718C89.1777 131.608 88.3642 132.481 86.8557 133.156C83.5904 134.616 78.2973 134.596 75.043 133.112C73.4845 132.401 72.6744 131.482 72.612 130.558Z" fill="url(#paint1_linear_98_12236)"></path><path fill-rule="evenodd" clip-rule="evenodd" d="M75.0812 121.868C78.3465 120.408 83.6396 120.428 86.8939 121.912C90.1482 123.397 90.1393 125.787 86.874 127.247C83.6087 128.708 78.3156 128.688 75.0613 127.203C71.807 125.719 71.8159 123.328 75.0812 121.868Z" fill="#3F22C9"></path><path fill-rule="evenodd" clip-rule="evenodd" d="M74.247 122.791L74.2404 122.791L74.2726 116.562L87.3249 116.674L87.2974 122.55C87.3057 122.663 87.3052 122.776 87.2958 122.889L87.2956 122.938L87.2913 122.938C87.1986 123.828 86.5618 124.702 85.3817 125.378C82.8275 126.841 78.6889 126.825 76.1456 125.343C74.9276 124.634 74.295 123.716 74.247 122.791Z" fill="url(#paint2_linear_98_12236)"></path><path fill-rule="evenodd" clip-rule="evenodd" d="M76.1842 114.1C78.7386 112.637 82.8772 112.652 85.4204 114.134C87.9637 115.616 87.9548 118.006 85.4005 119.469C82.8462 120.932 78.7077 120.916 76.1643 119.435C73.6211 117.953 73.63 115.562 76.1842 114.1Z" fill="#2CD4D9"></path><g opacity="0.5"><path opacity="0.5" fill-rule="evenodd" clip-rule="evenodd" d="M174.227 132.594C173.1 129.642 174.584 126.333 177.54 125.21C180.496 124.086 183.811 125.57 184.938 128.521C186.066 131.473 184.582 134.781 181.626 135.905C178.67 137.029 175.355 135.545 174.227 132.594Z" fill="#FFD141"></path><path opacity="0.5" fill-rule="evenodd" clip-rule="evenodd" d="M177.783 136.672C177.18 135.093 177.974 133.323 179.555 132.722C181.136 132.121 182.909 132.915 183.513 134.494C184.116 136.072 183.322 137.842 181.741 138.443C180.159 139.044 178.386 138.251 177.783 136.672Z" fill="#FFD141"></path><path opacity="0.5" fill-rule="evenodd" clip-rule="evenodd" d="M172.999 126.559C172.396 124.98 173.19 123.21 174.771 122.609C176.352 122.008 178.125 122.802 178.728 124.38C179.332 125.959 178.538 127.729 176.956 128.33C175.375 128.931 173.602 128.137 172.999 126.559Z" fill="#FFD141"></path><path opacity="0.5" fill-rule="evenodd" clip-rule="evenodd" d="M177.385 126.574C176.49 124.233 177.668 121.609 180.012 120.717C182.357 119.826 184.986 121.003 185.88 123.344C186.775 125.685 185.597 128.309 183.253 129.201C180.908 130.092 178.279 128.915 177.385 126.574Z" fill="#FFD141"></path><path opacity="0.5" fill-rule="evenodd" clip-rule="evenodd" d="M173.58 123.156C172.357 119.954 173.968 116.365 177.174 115.145C180.381 113.926 183.978 115.536 185.201 118.738C186.424 121.94 184.814 125.53 181.607 126.749C178.4 127.968 174.804 126.358 173.58 123.156Z" fill="#FFD141"></path></g><path fill-rule="evenodd" clip-rule="evenodd" d="M178.962 115.347C179.19 114.546 179.78 113.859 180.619 113.54C182.028 113.004 183.61 113.712 184.147 115.12C184.52 116.096 184.294 117.154 183.65 117.89C183.939 118.131 184.171 118.446 184.315 118.821C184.761 119.991 184.173 121.301 183.002 121.747C182.96 121.763 182.918 121.777 182.875 121.791C183.28 122.168 183.608 122.641 183.818 123.192C184.475 124.911 183.777 126.815 182.251 127.731C182.415 127.912 182.549 128.126 182.641 128.368C183.042 129.417 182.514 130.593 181.464 130.992C180.413 131.392 179.235 130.864 178.834 129.815C178.6 129.203 178.683 128.547 179.001 128.027C178.029 127.663 177.212 126.9 176.813 125.856C176.339 124.614 176.572 123.275 177.313 122.282C176.62 121.865 176.057 121.223 175.747 120.411C175.009 118.481 175.98 116.317 177.913 115.582C178.259 115.451 178.612 115.374 178.962 115.347Z" fill="url(#paint3_radial_98_12236)"></path><path fill-rule="evenodd" clip-rule="evenodd" d="M171.408 117.229L171.399 117.229L171.434 111L188.128 111.126L188.099 117.002C188.109 117.115 188.109 117.228 188.097 117.341L188.097 117.39L188.091 117.39C187.973 118.28 187.16 119.153 185.651 119.828C182.386 121.288 177.093 121.268 173.839 119.784C172.28 119.073 171.47 118.154 171.408 117.229Z" fill="url(#paint4_linear_98_12236)"></path><path fill-rule="evenodd" clip-rule="evenodd" d="M173.877 108.54C177.142 107.08 182.435 107.1 185.69 108.584C188.944 110.069 188.935 112.459 185.67 113.919C182.404 115.38 177.111 115.36 173.857 113.875C170.603 112.391 170.612 110 173.877 108.54Z" fill="#3F22C9"></path><path fill-rule="evenodd" clip-rule="evenodd" d="M173.043 109.463L173.036 109.463L173.068 103.234L186.121 103.346L186.093 109.222C186.101 109.335 186.101 109.448 186.092 109.561L186.091 109.61L186.087 109.61C185.994 110.5 185.357 111.374 184.177 112.05C181.623 113.513 177.485 113.497 174.941 112.015C173.723 111.306 173.091 110.388 173.043 109.463Z" fill="url(#paint5_linear_98_12236)"></path><path fill-rule="evenodd" clip-rule="evenodd" d="M174.98 100.771C177.534 99.3087 181.673 99.3241 184.216 100.806C186.759 102.288 186.75 104.678 184.196 106.141C181.642 107.604 177.503 107.588 174.96 106.107C172.417 104.625 172.426 102.234 174.98 100.771Z" fill="#2CD4D9"></path><g opacity="0.5"><path opacity="0.5" fill-rule="evenodd" clip-rule="evenodd" d="M200.627 78.1083C199.5 75.1569 200.984 71.8482 203.94 70.7244C206.896 69.6006 210.211 71.0844 211.338 74.0359C212.466 76.9874 210.982 80.296 208.026 81.4198C205.07 82.5436 201.755 81.0598 200.627 78.1083Z" fill="#FFD141"></path><path opacity="0.5" fill-rule="evenodd" clip-rule="evenodd" d="M204.183 82.1867C203.58 80.6079 204.374 78.8381 205.955 78.2369C207.536 77.6358 209.309 78.4295 209.912 80.0083C210.516 81.5871 209.722 83.357 208.14 83.9581C206.559 84.5592 204.786 83.7655 204.183 82.1867Z" fill="#FFD141"></path><path opacity="0.5" fill-rule="evenodd" clip-rule="evenodd" d="M199.399 72.0734C198.796 70.4946 199.59 68.7248 201.171 68.1237C202.752 67.5225 204.525 68.3162 205.128 69.895C205.731 71.4738 204.937 73.2436 203.356 73.8448C201.775 74.4459 200.002 73.6522 199.399 72.0734Z" fill="#FFD141"></path><path opacity="0.5" fill-rule="evenodd" clip-rule="evenodd" d="M203.785 72.0888C202.89 69.7477 204.068 67.1233 206.412 66.2319C208.757 65.3405 211.386 66.5175 212.28 68.8585C213.175 71.1996 211.997 73.824 209.653 74.7154C207.308 75.6068 204.679 74.4299 203.785 72.0888Z" fill="#FFD141"></path><path opacity="0.5" fill-rule="evenodd" clip-rule="evenodd" d="M199.98 68.6712C198.757 65.4691 200.368 61.8795 203.574 60.6602C206.781 59.4409 210.378 61.0508 211.601 64.2529C212.824 67.4551 211.214 71.0446 208.007 72.2639C204.8 73.4831 201.204 71.8733 199.98 68.6712Z" fill="#FFD141"></path></g><path fill-rule="evenodd" clip-rule="evenodd" d="M205.362 60.8618C205.59 60.0609 206.18 59.3737 207.019 59.055C208.428 58.5189 210.01 59.2267 210.548 60.6345C210.921 61.6108 210.694 62.6691 210.05 63.4049C210.339 63.6454 210.571 63.9608 210.715 64.336C211.161 65.5053 210.573 66.816 209.402 67.2612C209.36 67.2773 209.318 67.292 209.275 67.3054C209.681 67.6829 210.008 68.1558 210.218 68.7072C210.875 70.4261 210.177 72.3302 208.651 73.2457C208.815 73.427 208.949 73.6411 209.041 73.8827C209.442 74.9317 208.914 76.1076 207.864 76.507C206.813 76.9064 205.635 76.3791 205.234 75.3301C205 74.7174 205.083 74.0614 205.401 73.542C204.429 73.1776 203.612 72.4144 203.213 71.3705C202.739 70.1284 202.972 68.7896 203.713 67.7968C203.02 67.38 202.457 66.7378 202.147 65.9257C201.409 63.9954 202.38 61.8316 204.313 61.0966C204.659 60.9653 205.012 60.8884 205.362 60.8618Z" fill="url(#paint6_radial_98_12236)"></path><path fill-rule="evenodd" clip-rule="evenodd" d="M197.808 62.7442L197.799 62.7441L197.834 56.515L214.528 56.6407L214.499 62.5163C214.509 62.6296 214.509 62.743 214.497 62.8562L214.497 62.9046L214.491 62.9046C214.374 63.7949 213.56 64.6681 212.051 65.3427C208.786 66.8028 203.493 66.783 200.239 65.2986C198.68 64.5877 197.87 63.669 197.808 62.7442Z" fill="url(#paint7_linear_98_12236)"></path><path fill-rule="evenodd" clip-rule="evenodd" d="M200.277 54.055C203.542 52.5949 208.835 52.6146 212.09 54.0991C215.344 55.5835 215.335 57.9741 212.07 59.4342C208.804 60.8943 203.511 60.8745 200.257 59.3901C197.003 57.9056 197.012 55.515 200.277 54.055Z" fill="#3F22C9"></path><path fill-rule="evenodd" clip-rule="evenodd" d="M199.443 54.9778L199.436 54.9777L199.468 48.7485L212.521 48.8607L212.493 54.7363C212.501 54.8495 212.501 54.9629 212.492 55.0762L212.491 55.1245L212.487 55.1245C212.394 56.015 211.757 56.8888 210.577 57.5646C208.023 59.0274 203.885 59.0119 201.341 57.5301C200.123 56.8205 199.491 55.9024 199.443 54.9778Z" fill="url(#paint8_linear_98_12236)"></path><path fill-rule="evenodd" clip-rule="evenodd" d="M201.38 46.2863C203.934 44.8235 208.073 44.839 210.616 46.3208C213.159 47.8026 213.151 50.1932 210.596 51.6559C208.042 53.1186 203.903 53.1032 201.36 51.6214C198.817 50.1396 198.826 47.749 201.38 46.2863Z" fill="#2CD4D9"></path><g opacity="0.5"><path opacity="0.5" fill-rule="evenodd" clip-rule="evenodd" d="M2.90787 105.07C1.78039 102.119 3.26473 98.81 6.22046 97.6862C9.17625 96.5624 12.4913 98.0462 13.6188 100.998C14.7463 103.949 13.2619 107.258 10.3062 108.382C7.35042 109.505 4.03536 108.022 2.90787 105.07Z" fill="#FFD141"></path><path opacity="0.5" fill-rule="evenodd" clip-rule="evenodd" d="M6.4634 109.149C5.86024 107.57 6.65427 105.8 8.23532 105.199C9.81638 104.598 11.5896 105.391 12.1928 106.97C12.7959 108.549 12.0019 110.319 10.4208 110.92C8.83977 111.521 7.06649 110.727 6.4634 109.149Z" fill="#FFD141"></path><path opacity="0.5" fill-rule="evenodd" clip-rule="evenodd" d="M1.67946 99.0353C1.0763 97.4565 1.87033 95.6866 3.45139 95.0855C5.03244 94.4844 6.80571 95.2781 7.40887 96.8569C8.01197 98.4357 7.21794 100.205 5.63689 100.807C4.05583 101.408 2.28256 100.614 1.67946 99.0353Z" fill="#FFD141"></path><path opacity="0.5" fill-rule="evenodd" clip-rule="evenodd" d="M6.06495 99.0505C5.17067 96.7094 6.34801 94.0851 8.69244 93.1937C11.0369 92.3022 13.6664 93.4792 14.5608 95.8203C15.4551 98.1614 14.2777 100.786 11.9332 101.677C9.58873 102.569 6.95924 101.392 6.06495 99.0505Z" fill="#FFD141"></path><path opacity="0.5" fill-rule="evenodd" clip-rule="evenodd" d="M2.26098 95.6329C1.03776 92.4308 2.64812 88.8412 5.8549 87.6219C9.06161 86.4027 12.6582 88.0126 13.8814 91.2146C15.1047 94.4168 13.4943 98.0063 10.2875 99.2256C7.0808 100.445 3.4842 98.835 2.26098 95.6329Z" fill="#FFD141"></path></g><path fill-rule="evenodd" clip-rule="evenodd" d="M7.64276 87.8236C7.87047 87.0227 8.46063 86.3355 9.29895 86.0168C10.7088 85.4808 12.2901 86.1885 12.8279 87.5964C13.2008 88.5727 12.9746 89.6309 12.3306 90.3668C12.6191 90.6073 12.8516 90.9226 12.995 91.2978C13.4416 92.4672 12.8536 93.7779 11.6826 94.2231C11.6405 94.2391 11.5981 94.2538 11.5555 94.2673C11.9609 94.6447 12.2882 95.1177 12.4987 95.669C13.1554 97.3879 12.4575 99.2921 10.9315 100.208C11.0953 100.389 11.2289 100.603 11.3212 100.845C11.7219 101.894 11.1944 103.069 10.1439 103.469C9.09342 103.868 7.91523 103.341 7.51456 102.292C7.28046 101.679 7.36311 101.023 7.68174 100.504C6.7098 100.139 5.89258 99.3763 5.49381 98.3324C5.01931 97.0902 5.2521 95.7514 5.99363 94.7587C5.30083 94.3418 4.73739 93.6997 4.42721 92.8876C3.6898 90.9573 4.66055 88.7935 6.59361 88.0585C6.93906 87.9271 7.29199 87.8503 7.64276 87.8236Z" fill="url(#paint9_radial_98_12236)"></path><path fill-rule="evenodd" clip-rule="evenodd" d="M0.0882364 89.706L0.0797681 89.7059L0.114505 83.4768L16.8081 83.6025L16.7791 89.4781C16.7897 89.5914 16.7892 89.7048 16.7774 89.818L16.7771 89.8664L16.7717 89.8664C16.6539 90.7567 15.8404 91.6299 14.3319 92.3045C11.0666 93.7646 5.77351 93.7448 2.51917 92.2604C0.960692 91.5495 0.150612 90.6307 0.0882364 89.706Z" fill="url(#paint10_linear_98_12236)"></path><path fill-rule="evenodd" clip-rule="evenodd" d="M2.55741 81.0167C5.82274 79.5566 11.1158 79.5764 14.3701 81.0608C17.6244 82.5452 17.6155 84.9358 14.3502 86.3959C11.0849 87.856 5.79182 87.8363 2.53749 86.3518C-0.716791 84.8674 -0.707864 82.4768 2.55741 81.0167Z" fill="#3F22C9"></path><path fill-rule="evenodd" clip-rule="evenodd" d="M1.72309 81.9395L1.71649 81.9395L1.7487 75.7103L14.801 75.8224L14.7736 81.6981C14.7818 81.8113 14.7813 81.9247 14.772 82.0379L14.7717 82.0863L14.7675 82.0863C14.6747 82.9768 14.0379 83.8506 12.8579 84.5264C10.3036 85.9892 6.16503 85.9737 3.62169 84.4919C2.40378 83.7823 1.7711 82.8642 1.72309 81.9395Z" fill="url(#paint11_linear_98_12236)"></path><path fill-rule="evenodd" clip-rule="evenodd" d="M3.66039 73.248C6.21471 71.7852 10.3533 71.8007 12.8966 73.2825C15.4398 74.7643 15.4309 77.1549 12.8766 78.6176C10.3224 80.0803 6.1838 80.0649 3.64046 78.5832C1.09719 77.1014 1.10612 74.7108 3.66039 73.248Z" fill="#2CD4D9"></path><path d="M214.657 45.5551L136.08 0.232727L28.7601 16.8249L0 78.745L78.571 124.073L185.897 107.481L214.657 45.5551Z" fill="#5333ED"></path><path d="M124.753 26.4302L57.2281 50.7815L57.2281 65.8802H57.2316C57.1762 66.3851 57.4826 66.8969 58.156 67.2756L67.8556 72.7258C69.1021 73.4261 71.1362 73.4053 72.3982 72.6774L123.808 43.0038C124.331 42.703 124.634 42.326 124.724 41.9387L124.755 41.9231L124.755 26.4319L124.753 26.4302Z" fill="#3F22C9"></path><path d="M162.674 47.9145L111.768 45.1272L111.768 57.1481L100.799 57.7256C99.2119 57.8 97.943 58.5331 97.827 59.4409L96.1582 71.5119H94.1362L94.1362 86.1421L94.0791 86.5501C94.0531 86.7248 94.0756 86.8994 94.1362 87.0671V87.0758H94.1396C94.2626 87.413 94.5499 87.7242 94.9844 87.9697L105.875 94.0891C107.798 95.1698 111.15 94.428 111.352 92.8683L114.578 68.8543C114.7 67.9482 115.969 67.2168 117.557 67.1338L159.671 64.9776C161.497 64.8842 162.662 64.0023 162.671 63.1049L162.671 47.9145H162.674Z" fill="#3F22C9"></path><path d="M123.825 25.0919L114.126 19.6417C112.872 18.9379 110.838 18.9587 109.583 19.6832L58.1733 49.3567C56.9112 50.0847 56.9026 51.2432 58.1559 51.9469L67.8556 57.3971C69.102 58.0974 71.1361 58.0767 72.3981 57.3487L123.808 27.6752C125.063 26.9507 125.072 25.7922 123.825 25.0919Z" fill="#E1EAF8"></path><path d="M159.674 49.649C162.416 49.509 163.673 47.5896 161.749 46.5089L150.859 40.3895C150.201 40.0195 149.282 39.8414 148.354 39.8933L100.801 42.3971C99.2135 42.4714 97.9446 43.2046 97.8286 44.1124L94.0824 71.2199C94.0027 71.749 94.3299 72.2694 94.986 72.6395L105.877 78.7588C107.8 79.8395 111.152 79.0977 111.354 77.5381L114.579 53.524C114.702 52.6179 115.971 51.8865 117.558 51.8035L159.674 49.6473V49.649Z" fill="#E1EAF8"></path><defs><radialGradient id="paint0_radial_98_12236" cx="0" cy="0" r="1" gradientUnits="userSpaceOnUse" gradientTransform="translate(80.9533 135.376) rotate(7.75309) scale(4.64433 8.88015)"><stop stop-color="#E5ED33"></stop><stop offset="1" stop-color="#F77331"></stop></radialGradient><linearGradient id="paint1_linear_98_12236" x1="72.6084" y1="129.267" x2="89.3148" y2="129.33" gradientUnits="userSpaceOnUse"><stop stop-color="#3F22C9"></stop><stop offset="1" stop-color="#7258F2"></stop></linearGradient><linearGradient id="paint2_linear_98_12236" x1="74.2452" y1="121.501" x2="87.3076" y2="121.55" gradientUnits="userSpaceOnUse"><stop stop-color="#3F22C9"></stop><stop offset="1" stop-color="#7258F2"></stop></linearGradient><radialGradient id="paint3_radial_98_12236" cx="0" cy="0" r="1" gradientUnits="userSpaceOnUse" gradientTransform="translate(179.749 122.047) rotate(7.75309) scale(4.64433 8.88015)"><stop stop-color="#E5ED33"></stop><stop offset="1" stop-color="#F77331"></stop></radialGradient><linearGradient id="paint4_linear_98_12236" x1="171.404" y1="115.939" x2="188.11" y2="116.002" gradientUnits="userSpaceOnUse"><stop stop-color="#3F22C9"></stop><stop offset="1" stop-color="#7258F2"></stop></linearGradient><linearGradient id="paint5_linear_98_12236" x1="173.041" y1="108.173" x2="186.103" y2="108.222" gradientUnits="userSpaceOnUse"><stop stop-color="#3F22C9"></stop><stop offset="1" stop-color="#7258F2"></stop></linearGradient><radialGradient id="paint6_radial_98_12236" cx="0" cy="0" r="1" gradientUnits="userSpaceOnUse" gradientTransform="translate(206.149 67.5622) rotate(7.75309) scale(4.64433 8.88015)"><stop stop-color="#E5ED33"></stop><stop offset="1" stop-color="#F77331"></stop></radialGradient><linearGradient id="paint7_linear_98_12236" x1="197.804" y1="61.4541" x2="214.511" y2="61.5164" gradientUnits="userSpaceOnUse"><stop stop-color="#3F22C9"></stop><stop offset="1" stop-color="#7258F2"></stop></linearGradient><linearGradient id="paint8_linear_98_12236" x1="199.441" y1="53.6876" x2="212.503" y2="53.7363" gradientUnits="userSpaceOnUse"><stop stop-color="#3F22C9"></stop><stop offset="1" stop-color="#7258F2"></stop></linearGradient><radialGradient id="paint9_radial_98_12236" cx="0" cy="0" r="1" gradientUnits="userSpaceOnUse" gradientTransform="translate(8.42933 94.524) rotate(7.75309) scale(4.64433 8.88015)"><stop stop-color="#E5ED33"></stop><stop offset="1" stop-color="#F77331"></stop></radialGradient><linearGradient id="paint10_linear_98_12236" x1="0.0845852" y1="88.4158" x2="16.791" y2="88.4782" gradientUnits="userSpaceOnUse"><stop stop-color="#3F22C9"></stop><stop offset="1" stop-color="#7258F2"></stop></linearGradient><linearGradient id="paint11_linear_98_12236" x1="1.7213" y1="80.6494" x2="14.7837" y2="80.6981" gradientUnits="userSpaceOnUse"><stop stop-color="#3F22C9"></stop><stop offset="1" stop-color="#7258F2"></stop></linearGradient></defs></svg> 